<svg width="27" height="20" viewBox="0 0 27 20" fill="none" xmlns="http://www.w3.org/2000/svg">
<path fill-rule="evenodd" clip-rule="evenodd" d="M5.82623 0.0502989C2.90674 0.499736 0.800353 2.3793 0.169275 5.09815C0.00851708 5.79077 0.0102468 7.06623 0.172938 7.76838C0.38925 8.70205 0.831284 9.6216 1.49019 10.5086C1.99475 11.1878 2.36474 11.593 3.23055 12.4144C4.39757 13.5215 5.55803 14.4548 8.11053 16.339C8.84925 16.8843 10.2639 17.931 11.2542 18.6652L13.0547 20L14.1843 19.1577C14.8056 18.6945 16.1611 17.6918 17.1963 16.9296C20.4322 14.547 21.6409 13.5837 22.9204 12.3673C24.6655 10.7083 25.5664 9.33022 25.9271 7.76838C26.0789 7.11099 26.0922 5.84038 25.954 5.19918C25.6515 3.79597 24.9635 2.61256 23.9143 1.69088C22.9924 0.881049 21.8757 0.350411 20.5539 0.094015C19.9164 -0.0296273 18.4467 -0.0311379 17.8426 0.0912297C16.0426 0.455925 14.5265 1.45578 13.3965 3.02338C13.2271 3.25839 13.0712 3.45072 13.0502 3.45072C13.0291 3.45072 12.8714 3.25589 12.6998 3.01776C11.5843 1.47018 10.069 0.465933 8.29357 0.0976501C7.78647 -0.00753315 6.37754 -0.0345842 5.82623 0.0502989Z" fill="#504EFF"/>
</svg>
