<svg width="16" height="12" viewBox="0 0 16 12" fill="none" xmlns="http://www.w3.org/2000/svg">
<path fill-rule="evenodd" clip-rule="evenodd" d="M3.83256 0.527664C2.14823 0.774855 0.933009 1.80861 0.568925 3.30398C0.47618 3.68492 0.477178 4.38643 0.571039 4.77261C0.695834 5.28613 0.950853 5.79188 1.33099 6.27972C1.62208 6.65331 1.83554 6.87614 2.33505 7.32794C3.00833 7.93685 3.67782 8.45016 5.15042 9.48644C5.5766 9.78634 6.39273 10.3621 6.96405 10.7659L8.0028 11.5L8.65454 11.0368C9.01299 10.782 9.79495 10.2305 10.3922 9.81129C12.2591 8.50087 12.9564 7.97105 13.6946 7.30203C14.7013 6.38955 15.2211 5.63162 15.4292 4.77261C15.5168 4.41104 15.5245 3.71221 15.4447 3.35955C15.2702 2.58778 14.8733 1.93691 14.268 1.42999C13.7361 0.984577 13.0918 0.692726 12.3293 0.551708C11.9615 0.483705 11.1136 0.482874 10.7651 0.550176C9.7266 0.750759 8.85192 1.30068 8.20003 2.16286C8.1023 2.29211 8.01237 2.3979 8.00022 2.3979C7.98807 2.3979 7.89708 2.29074 7.79809 2.15977C7.15453 1.3086 6.28032 0.756263 5.25602 0.553708C4.96346 0.495857 4.15062 0.480979 3.83256 0.527664Z" fill="#686868"/>
</svg>
