<svg width="139" height="30" viewBox="0 0 139 30" fill="none" xmlns="http://www.w3.org/2000/svg">
<path d="M1.288 24V10.224H6.776V24H1.288ZM4.032 8.936C3.22933 8.936 2.55733 8.66533 2.016 8.124C1.49333 7.564 1.232 6.88267 1.232 6.08C1.232 5.27733 1.49333 4.60533 2.016 4.064C2.55733 3.504 3.22933 3.224 4.032 3.224C4.85333 3.224 5.52533 3.504 6.048 4.064C6.57067 4.60533 6.832 5.27733 6.832 6.08C6.832 6.88267 6.57067 7.564 6.048 8.124C5.52533 8.66533 4.85333 8.936 4.032 8.936ZM18.1464 24V16.272C18.1464 15.7307 17.9877 15.32 17.6704 15.04C17.3717 14.7413 16.9891 14.592 16.5224 14.592C16.2051 14.592 15.9157 14.6573 15.6544 14.788C15.4117 14.9187 15.2157 15.1147 15.0664 15.376C14.9357 15.6187 14.8704 15.9173 14.8704 16.272L12.7424 15.32C12.7424 14.2 12.9851 13.2387 13.4704 12.436C13.9744 11.6333 14.6557 11.0173 15.5144 10.588C16.3917 10.1587 17.3811 9.944 18.4824 9.944C19.4717 9.944 20.3491 10.168 21.1144 10.616C21.8984 11.0453 22.5144 11.6427 22.9624 12.408C23.4104 13.1547 23.6344 14.0227 23.6344 15.012V24H18.1464ZM9.38241 24V10.224H14.8704V24H9.38241ZM31.4681 24.42C30.6094 24.42 29.7507 24.308 28.8921 24.084C28.0334 23.86 27.2307 23.552 26.4841 23.16C25.7561 22.768 25.1401 22.32 24.6361 21.816L27.5201 18.848C27.9681 19.296 28.5001 19.6507 29.1161 19.912C29.7507 20.1733 30.4134 20.304 31.1041 20.304C31.4214 20.304 31.6641 20.2667 31.8321 20.192C32.0187 20.0987 32.1121 19.9773 32.1121 19.828C32.1121 19.5667 31.9534 19.3707 31.6361 19.24C31.3374 19.1093 30.9454 18.988 30.4601 18.876C29.9934 18.764 29.4894 18.624 28.9481 18.456C28.4254 18.2693 27.9214 18.0267 27.4361 17.728C26.9507 17.4107 26.5587 16.9813 26.2601 16.44C25.9614 15.88 25.8121 15.1707 25.8121 14.312C25.8121 13.4347 26.0547 12.66 26.5401 11.988C27.0441 11.2973 27.7441 10.756 28.6401 10.364C29.5547 9.95333 30.6094 9.748 31.8041 9.748C33.0174 9.748 34.1934 9.95333 35.3321 10.364C36.4707 10.7747 37.3761 11.3907 38.0481 12.212L35.1361 15.18C34.6694 14.6573 34.1561 14.312 33.5961 14.144C33.0361 13.9573 32.5694 13.864 32.1961 13.864C31.8414 13.864 31.5894 13.92 31.4401 14.032C31.3094 14.1253 31.2441 14.2467 31.2441 14.396C31.2441 14.6013 31.3934 14.7693 31.6921 14.9C31.9907 15.0307 32.3734 15.152 32.8401 15.264C33.3254 15.376 33.8294 15.5253 34.3521 15.712C34.8747 15.8987 35.3694 16.16 35.8361 16.496C36.3214 16.832 36.7134 17.28 37.0121 17.84C37.3107 18.3813 37.4601 19.0907 37.4601 19.968C37.4601 21.3307 36.9187 22.4133 35.8361 23.216C34.7534 24.0187 33.2974 24.42 31.4681 24.42ZM48.0539 24.28C47.2326 24.28 46.4579 24.1493 45.7299 23.888C45.0019 23.608 44.3859 23.2253 43.8819 22.74C43.3779 22.2547 43.0512 21.6947 42.9019 21.06V13.444C43.0512 12.8093 43.3779 12.2307 43.8819 11.708C44.3859 11.1667 45.0019 10.7373 45.7299 10.42C46.4579 10.1027 47.2326 9.944 48.0539 9.944C49.4166 9.944 50.6019 10.252 51.6099 10.868C52.6366 11.4653 53.4299 12.3053 53.9899 13.388C54.5686 14.4707 54.8579 15.712 54.8579 17.112C54.8579 18.512 54.5686 19.7533 53.9899 20.836C53.4299 21.9 52.6366 22.74 51.6099 23.356C50.6019 23.972 49.4166 24.28 48.0539 24.28ZM47.0179 19.464C47.4659 19.464 47.8672 19.3613 48.2219 19.156C48.5766 18.9507 48.8472 18.6707 49.0339 18.316C49.2392 17.9613 49.3419 17.56 49.3419 17.112C49.3419 16.6453 49.2392 16.244 49.0339 15.908C48.8472 15.5533 48.5766 15.2733 48.2219 15.068C47.8859 14.8627 47.4939 14.76 47.0459 14.76C46.5979 14.76 46.1966 14.8627 45.8419 15.068C45.5059 15.2547 45.2352 15.5253 45.0299 15.88C44.8432 16.2347 44.7499 16.6453 44.7499 17.112C44.7499 17.56 44.8432 17.9613 45.0299 18.316C45.2166 18.6707 45.4779 18.9507 45.8139 19.156C46.1686 19.3613 46.5699 19.464 47.0179 19.464ZM39.5699 29.88V10.224H45.0579V13.612L44.1619 16.944L44.9179 20.304V29.88H39.5699ZM56.6318 24V10.224H62.1198V24H56.6318ZM59.3758 8.936C58.5731 8.936 57.9011 8.66533 57.3598 8.124C56.8371 7.564 56.5758 6.88267 56.5758 6.08C56.5758 5.27733 56.8371 4.60533 57.3598 4.064C57.9011 3.504 58.5731 3.224 59.3758 3.224C60.1971 3.224 60.8691 3.504 61.3918 4.064C61.9144 4.60533 62.1758 5.27733 62.1758 6.08C62.1758 6.88267 61.9144 7.564 61.3918 8.124C60.8691 8.66533 60.1971 8.936 59.3758 8.936ZM64.7262 24V10.224H70.2142V24H64.7262ZM70.2142 16.552L67.6662 14.284C68.3755 12.7907 69.1968 11.6987 70.1302 11.008C71.0822 10.2987 72.2675 9.944 73.6862 9.944C74.3208 9.944 74.8622 10.0187 75.3102 10.168C75.7768 10.3173 76.1502 10.532 76.4302 10.812L73.3502 15.18C73.2195 15.0307 73.0235 14.9093 72.7622 14.816C72.5195 14.704 72.2302 14.648 71.8942 14.648C71.3342 14.648 70.9142 14.816 70.6342 15.152C70.3542 15.4693 70.2142 15.936 70.2142 16.552ZM82.5521 24.28C81.2641 24.28 80.1254 23.972 79.1361 23.356C78.1468 22.74 77.3721 21.9 76.8121 20.836C76.2521 19.7533 75.9721 18.512 75.9721 17.112C75.9721 15.712 76.2521 14.4707 76.8121 13.388C77.3721 12.3053 78.1468 11.4653 79.1361 10.868C80.1254 10.252 81.2641 9.944 82.5521 9.944C83.3548 9.944 84.0921 10.084 84.7641 10.364C85.4548 10.6253 86.0241 10.9987 86.4721 11.484C86.9388 11.9693 87.2374 12.5293 87.3681 13.164V21.06C87.2374 21.6947 86.9388 22.2547 86.4721 22.74C86.0241 23.2253 85.4548 23.608 84.7641 23.888C84.0921 24.1493 83.3548 24.28 82.5521 24.28ZM83.7841 19.464C84.4748 19.464 85.0254 19.2493 85.4361 18.82C85.8654 18.372 86.0801 17.8027 86.0801 17.112C86.0801 16.6453 85.9868 16.244 85.8001 15.908C85.6134 15.5533 85.3428 15.2733 84.9881 15.068C84.6521 14.8627 84.2601 14.76 83.8121 14.76C83.3641 14.76 82.9628 14.8627 82.6081 15.068C82.2721 15.2733 82.0014 15.5533 81.7961 15.908C81.5908 16.2627 81.4881 16.664 81.4881 17.112C81.4881 17.56 81.5814 17.9613 81.7681 18.316C81.9734 18.6707 82.2534 18.9507 82.6081 19.156C82.9628 19.3613 83.3548 19.464 83.7841 19.464ZM85.9121 24V20.304L86.6681 16.944L85.9121 13.612V10.224H91.2601V24H85.9121ZM102.666 24V16.272C102.666 15.7307 102.507 15.32 102.19 15.04C101.891 14.7413 101.509 14.592 101.042 14.592C100.725 14.592 100.435 14.6573 100.174 14.788C99.9313 14.9187 99.7353 15.1147 99.5859 15.376C99.4553 15.6187 99.3899 15.9173 99.3899 16.272L97.2619 15.32C97.2619 14.2 97.5046 13.2387 97.9899 12.436C98.4939 11.6333 99.1753 11.0173 100.034 10.588C100.911 10.1587 101.901 9.944 103.002 9.944C103.991 9.944 104.869 10.168 105.634 10.616C106.418 11.0453 107.034 11.6427 107.482 12.408C107.93 13.1547 108.154 14.0227 108.154 15.012V24H102.666ZM93.9019 24V10.224H99.3899V24H93.9019ZM117.472 24.336C115.978 24.336 114.634 24.028 113.44 23.412C112.245 22.796 111.302 21.9467 110.612 20.864C109.921 19.7627 109.576 18.5213 109.576 17.14C109.576 15.74 109.921 14.4987 110.612 13.416C111.321 12.3147 112.273 11.456 113.468 10.84C114.681 10.2053 116.044 9.888 117.556 9.888C118.638 9.888 119.609 10.056 120.468 10.392C121.345 10.728 122.157 11.2413 122.904 11.932L119.46 15.376C119.217 15.152 118.946 14.984 118.648 14.872C118.349 14.76 117.985 14.704 117.556 14.704C117.108 14.704 116.697 14.8067 116.324 15.012C115.969 15.1987 115.68 15.4693 115.456 15.824C115.232 16.1787 115.12 16.5987 115.12 17.084C115.12 17.5693 115.232 17.9987 115.456 18.372C115.68 18.7267 115.978 19.0067 116.352 19.212C116.725 19.4173 117.126 19.52 117.556 19.52C118.041 19.52 118.442 19.4453 118.76 19.296C119.077 19.1467 119.357 18.9413 119.6 18.68L123.044 22.124C122.241 22.8707 121.401 23.4307 120.524 23.804C119.646 24.1587 118.629 24.336 117.472 24.336ZM131.422 24.336C129.816 24.336 128.407 24.0373 127.194 23.44C125.98 22.824 125.028 21.9747 124.338 20.892C123.666 19.7907 123.33 18.5307 123.33 17.112C123.33 15.712 123.656 14.4707 124.31 13.388C124.982 12.3053 125.896 11.456 127.053 10.84C128.211 10.2053 129.518 9.888 130.974 9.888C132.411 9.888 133.68 10.1867 134.782 10.784C135.883 11.3627 136.742 12.1747 137.358 13.22C137.992 14.2653 138.31 15.46 138.31 16.804C138.31 17.084 138.291 17.3827 138.254 17.7C138.235 17.9987 138.179 18.3533 138.086 18.764L125.654 18.848V15.488L136.042 15.404L133.494 16.888C133.494 16.1413 133.4 15.5347 133.214 15.068C133.046 14.5827 132.784 14.2187 132.43 13.976C132.075 13.7333 131.627 13.612 131.086 13.612C130.526 13.612 130.04 13.752 129.63 14.032C129.219 14.312 128.902 14.7133 128.678 15.236C128.472 15.7587 128.37 16.3933 128.37 17.14C128.37 17.9053 128.482 18.5493 128.706 19.072C128.948 19.576 129.294 19.9587 129.742 20.22C130.19 20.4813 130.75 20.612 131.422 20.612C132.075 20.612 132.644 20.5093 133.13 20.304C133.634 20.08 134.091 19.7347 134.502 19.268L137.246 21.984C136.555 22.768 135.724 23.356 134.754 23.748C133.783 24.14 132.672 24.336 131.422 24.336Z" fill="#4894CB"/>
</svg>
