<svg width="138" height="27" viewBox="0 0 138 27" fill="none" xmlns="http://www.w3.org/2000/svg">
<path d="M0.288422 21V7.224H5.77642V21H0.288422ZM3.03242 5.936C2.22976 5.936 1.55776 5.66533 1.01642 5.124C0.493755 4.564 0.232422 3.88267 0.232422 3.08C0.232422 2.27733 0.493755 1.60533 1.01642 1.064C1.55776 0.503999 2.22976 0.223999 3.03242 0.223999C3.85376 0.223999 4.52576 0.503999 5.04842 1.064C5.57109 1.60533 5.83242 2.27733 5.83242 3.08C5.83242 3.88267 5.57109 4.564 5.04842 5.124C4.52576 5.66533 3.85376 5.936 3.03242 5.936Z" fill="#504EFF"/>
<path d="M17.1468 21V13.272C17.1468 12.7307 16.9882 12.32 16.6708 12.04C16.3722 11.7413 15.9895 11.592 15.5228 11.592C15.2055 11.592 14.9162 11.6573 14.6548 11.788C14.4122 11.9187 14.2162 12.1147 14.0668 12.376C13.9362 12.6187 13.8708 12.9173 13.8708 13.272L11.7428 12.32C11.7428 11.2 11.9855 10.2387 12.4708 9.436C12.9748 8.63333 13.6562 8.01733 14.5148 7.588C15.3922 7.15867 16.3815 6.944 17.4828 6.944C18.4722 6.944 19.3495 7.168 20.1148 7.616C20.8988 8.04533 21.5148 8.64267 21.9628 9.408C22.4108 10.1547 22.6348 11.0227 22.6348 12.012V21H17.1468ZM8.38283 21V7.224H13.8708V21H8.38283Z" fill="#504EFF"/>
<path d="M30.4685 21.42C29.6098 21.42 28.7512 21.308 27.8925 21.084C27.0338 20.86 26.2312 20.552 25.4845 20.16C24.7565 19.768 24.1405 19.32 23.6365 18.816L26.5205 15.848C26.9685 16.296 27.5005 16.6507 28.1165 16.912C28.7512 17.1733 29.4138 17.304 30.1045 17.304C30.4218 17.304 30.6645 17.2667 30.8325 17.192C31.0192 17.0987 31.1125 16.9773 31.1125 16.828C31.1125 16.5667 30.9538 16.3707 30.6365 16.24C30.3378 16.1093 29.9458 15.988 29.4605 15.876C28.9938 15.764 28.4898 15.624 27.9485 15.456C27.4258 15.2693 26.9218 15.0267 26.4365 14.728C25.9512 14.4107 25.5592 13.9813 25.2605 13.44C24.9618 12.88 24.8125 12.1707 24.8125 11.312C24.8125 10.4347 25.0552 9.66 25.5405 8.988C26.0445 8.29733 26.7445 7.756 27.6405 7.364C28.5552 6.95333 29.6098 6.748 30.8045 6.748C32.0178 6.748 33.1938 6.95333 34.3325 7.364C35.4712 7.77467 36.3765 8.39067 37.0485 9.212L34.1365 12.18C33.6698 11.6573 33.1565 11.312 32.5965 11.144C32.0365 10.9573 31.5698 10.864 31.1965 10.864C30.8418 10.864 30.5898 10.92 30.4405 11.032C30.3098 11.1253 30.2445 11.2467 30.2445 11.396C30.2445 11.6013 30.3938 11.7693 30.6925 11.9C30.9912 12.0307 31.3738 12.152 31.8405 12.264C32.3258 12.376 32.8298 12.5253 33.3525 12.712C33.8752 12.8987 34.3698 13.16 34.8365 13.496C35.3218 13.832 35.7138 14.28 36.0125 14.84C36.3112 15.3813 36.4605 16.0907 36.4605 16.968C36.4605 18.3307 35.9191 19.4133 34.8365 20.216C33.7538 21.0187 32.2978 21.42 30.4685 21.42Z" fill="#504EFF"/>
<path d="M47.0543 21.28C46.233 21.28 45.4583 21.1493 44.7303 20.888C44.0023 20.608 43.3863 20.2253 42.8823 19.74C42.3783 19.2547 42.0517 18.6947 41.9023 18.06V10.444C42.0517 9.80933 42.3783 9.23067 42.8823 8.708C43.3863 8.16667 44.0023 7.73733 44.7303 7.42C45.4583 7.10267 46.233 6.944 47.0543 6.944C48.417 6.944 49.6023 7.252 50.6103 7.868C51.637 8.46533 52.4303 9.30533 52.9903 10.388C53.569 11.4707 53.8583 12.712 53.8583 14.112C53.8583 15.512 53.569 16.7533 52.9903 17.836C52.4303 18.9 51.637 19.74 50.6103 20.356C49.6023 20.972 48.417 21.28 47.0543 21.28ZM46.0183 16.464C46.4663 16.464 46.8677 16.3613 47.2223 16.156C47.577 15.9507 47.8477 15.6707 48.0343 15.316C48.2397 14.9613 48.3423 14.56 48.3423 14.112C48.3423 13.6453 48.2397 13.244 48.0343 12.908C47.8477 12.5533 47.577 12.2733 47.2223 12.068C46.8863 11.8627 46.4943 11.76 46.0463 11.76C45.5983 11.76 45.197 11.8627 44.8423 12.068C44.5063 12.2547 44.2357 12.5253 44.0303 12.88C43.8437 13.2347 43.7503 13.6453 43.7503 14.112C43.7503 14.56 43.8437 14.9613 44.0303 15.316C44.217 15.6707 44.4783 15.9507 44.8143 16.156C45.169 16.3613 45.5703 16.464 46.0183 16.464ZM38.5703 26.88V7.224H44.0583V10.612L43.1623 13.944L43.9183 17.304V26.88H38.5703Z" fill="#504EFF"/>
<path d="M55.6322 21V7.224H61.1202V21H55.6322ZM58.3762 5.936C57.5735 5.936 56.9015 5.66533 56.3602 5.124C55.8375 4.564 55.5762 3.88267 55.5762 3.08C55.5762 2.27733 55.8375 1.60533 56.3602 1.064C56.9015 0.503999 57.5735 0.223999 58.3762 0.223999C59.1975 0.223999 59.8695 0.503999 60.3922 1.064C60.9148 1.60533 61.1762 2.27733 61.1762 3.08C61.1762 3.88267 60.9148 4.564 60.3922 5.124C59.8695 5.66533 59.1975 5.936 58.3762 5.936Z" fill="#504EFF"/>
<path d="M63.7266 21V7.224H69.2146V21H63.7266ZM69.2146 13.552L66.6666 11.284C67.3759 9.79067 68.1972 8.69867 69.1306 8.008C70.0826 7.29867 71.2679 6.944 72.6866 6.944C73.3212 6.944 73.8626 7.01867 74.3106 7.168C74.7772 7.31733 75.1506 7.532 75.4306 7.812L72.3506 12.18C72.2199 12.0307 72.0239 11.9093 71.7626 11.816C71.5199 11.704 71.2306 11.648 70.8946 11.648C70.3346 11.648 69.9146 11.816 69.6346 12.152C69.3546 12.4693 69.2146 12.936 69.2146 13.552Z" fill="#504EFF"/>
<path d="M81.5525 21.28C80.2645 21.28 79.1258 20.972 78.1365 20.356C77.1472 19.74 76.3725 18.9 75.8125 17.836C75.2525 16.7533 74.9725 15.512 74.9725 14.112C74.9725 12.712 75.2525 11.4707 75.8125 10.388C76.3725 9.30533 77.1472 8.46533 78.1365 7.868C79.1258 7.252 80.2645 6.944 81.5525 6.944C82.3552 6.944 83.0925 7.084 83.7645 7.364C84.4552 7.62533 85.0245 7.99867 85.4725 8.484C85.9392 8.96933 86.2378 9.52933 86.3685 10.164V18.06C86.2378 18.6947 85.9392 19.2547 85.4725 19.74C85.0245 20.2253 84.4552 20.608 83.7645 20.888C83.0925 21.1493 82.3552 21.28 81.5525 21.28ZM82.7845 16.464C83.4752 16.464 84.0258 16.2493 84.4365 15.82C84.8658 15.372 85.0805 14.8027 85.0805 14.112C85.0805 13.6453 84.9872 13.244 84.8005 12.908C84.6138 12.5533 84.3432 12.2733 83.9885 12.068C83.6525 11.8627 83.2605 11.76 82.8125 11.76C82.3645 11.76 81.9632 11.8627 81.6085 12.068C81.2725 12.2733 81.0018 12.5533 80.7965 12.908C80.5912 13.2627 80.4885 13.664 80.4885 14.112C80.4885 14.56 80.5819 14.9613 80.7685 15.316C80.9739 15.6707 81.2538 15.9507 81.6085 16.156C81.9632 16.3613 82.3552 16.464 82.7845 16.464ZM84.9125 21V17.304L85.6685 13.944L84.9125 10.612V7.224H90.2605V21H84.9125Z" fill="#504EFF"/>
<path d="M101.666 21V13.272C101.666 12.7307 101.508 12.32 101.19 12.04C100.892 11.7413 100.509 11.592 100.042 11.592C99.725 11.592 99.4357 11.6573 99.1744 11.788C98.9317 11.9187 98.7357 12.1147 98.5864 12.376C98.4557 12.6187 98.3904 12.9173 98.3904 13.272L96.2624 12.32C96.2624 11.2 96.505 10.2387 96.9904 9.436C97.4944 8.63333 98.1757 8.01733 99.0344 7.588C99.9117 7.15867 100.901 6.944 102.002 6.944C102.992 6.944 103.869 7.168 104.634 7.616C105.418 8.04533 106.034 8.64267 106.482 9.408C106.93 10.1547 107.154 11.0227 107.154 12.012V21H101.666ZM92.9024 21V7.224H98.3904V21H92.9024Z" fill="#504EFF"/>
<path d="M116.472 21.336C114.979 21.336 113.635 21.028 112.44 20.412C111.245 19.796 110.303 18.9467 109.612 17.864C108.921 16.7627 108.576 15.5213 108.576 14.14C108.576 12.74 108.921 11.4987 109.612 10.416C110.321 9.31467 111.273 8.456 112.468 7.84C113.681 7.20533 115.044 6.888 116.556 6.888C117.639 6.888 118.609 7.056 119.468 7.392C120.345 7.728 121.157 8.24133 121.904 8.932L118.46 12.376C118.217 12.152 117.947 11.984 117.648 11.872C117.349 11.76 116.985 11.704 116.556 11.704C116.108 11.704 115.697 11.8067 115.324 12.012C114.969 12.1987 114.68 12.4693 114.456 12.824C114.232 13.1787 114.12 13.5987 114.12 14.084C114.12 14.5693 114.232 14.9987 114.456 15.372C114.68 15.7267 114.979 16.0067 115.352 16.212C115.725 16.4173 116.127 16.52 116.556 16.52C117.041 16.52 117.443 16.4453 117.76 16.296C118.077 16.1467 118.357 15.9413 118.6 15.68L122.044 19.124C121.241 19.8707 120.401 20.4307 119.524 20.804C118.647 21.1587 117.629 21.336 116.472 21.336Z" fill="#504EFF"/>
<path d="M130.422 21.336C128.817 21.336 127.407 21.0373 126.194 20.44C124.981 19.824 124.029 18.9747 123.338 17.892C122.666 16.7907 122.33 15.5307 122.33 14.112C122.33 12.712 122.657 11.4707 123.31 10.388C123.982 9.30533 124.897 8.456 126.054 7.84C127.211 7.20533 128.518 6.888 129.974 6.888C131.411 6.888 132.681 7.18667 133.782 7.784C134.883 8.36267 135.742 9.17467 136.358 10.22C136.993 11.2653 137.31 12.46 137.31 13.804C137.31 14.084 137.291 14.3827 137.254 14.7C137.235 14.9987 137.179 15.3533 137.086 15.764L124.654 15.848V12.488L135.042 12.404L132.494 13.888C132.494 13.1413 132.401 12.5347 132.214 12.068C132.046 11.5827 131.785 11.2187 131.43 10.976C131.075 10.7333 130.627 10.612 130.086 10.612C129.526 10.612 129.041 10.752 128.63 11.032C128.219 11.312 127.902 11.7133 127.678 12.236C127.473 12.7587 127.37 13.3933 127.37 14.14C127.37 14.9053 127.482 15.5493 127.706 16.072C127.949 16.576 128.294 16.9587 128.742 17.22C129.19 17.4813 129.75 17.612 130.422 17.612C131.075 17.612 131.645 17.5093 132.13 17.304C132.634 17.08 133.091 16.7347 133.502 16.268L136.246 18.984C135.555 19.768 134.725 20.356 133.754 20.748C132.783 21.14 131.673 21.336 130.422 21.336Z" fill="#504EFF"/>
</svg>
