<svg width="22" height="26" viewBox="0 0 22 26" fill="none" xmlns="http://www.w3.org/2000/svg">
<path fill-rule="evenodd" clip-rule="evenodd" d="M10.3666 1.08175C9.68741 1.32405 9.26141 1.77002 9.05984 2.44994C9.00041 2.65042 8.98438 2.92483 8.98438 3.74148V4.42364C8.98438 4.63507 8.84794 4.82234 8.64669 4.88716V4.88716C6.64709 5.53122 4.83964 7.4552 4.24475 9.57306C4.02425 10.358 4.00878 10.5427 3.97152 12.8359C3.91573 16.2717 3.81275 16.6208 1.93217 19.75C0.850813 21.5494 0.846594 21.5606 1.13783 21.8646V21.8646C1.22068 21.9511 1.33525 22 1.45501 22H11H20.545C20.6648 22 20.7793 21.9511 20.8622 21.8646V21.8646C21.1533 21.5608 21.149 21.5493 20.0696 19.75C18.9496 17.8829 18.7609 17.5243 18.4999 16.7673C18.1009 15.6103 18.0726 15.3748 18.0301 12.8594C17.9909 10.5432 17.9753 10.3565 17.7553 9.57306C17.1552 7.43683 15.305 5.48725 13.2852 4.86306V4.86306C13.1249 4.81354 13.0156 4.66538 13.0156 4.49766V3.73858C13.0156 2.36875 12.9035 1.98939 12.3515 1.49059C11.8682 1.054 10.9655 0.868094 10.3666 1.08175ZM7.93006 23.2112C8.95873 25.1012 11.5543 25.5973 13.221 24.2225C13.5605 23.9426 13.8772 23.5652 14.0699 23.2112V23.2112C14.1256 23.1089 14.0516 22.9844 13.9352 22.9844H11H8.06483C7.94843 22.9844 7.87442 23.1089 7.93006 23.2112V23.2112Z" fill="black"/>
</svg>
