<svg width="20" height="20" viewBox="0 0 20 20" fill="none" xmlns="http://www.w3.org/2000/svg">
<path d="M19.6355 3.96742C18.9397 4.27575 18.1922 4.48409 17.4064 4.57825C18.2172 4.09308 18.8238 3.32948 19.113 2.42992C18.3512 2.88241 17.5175 3.20092 16.648 3.37159C16.0634 2.74731 15.2889 2.33353 14.445 2.19448C13.601 2.05544 12.7348 2.19891 11.9807 2.60263C11.2267 3.00635 10.627 3.64772 10.2748 4.42717C9.92264 5.20663 9.83765 6.08055 10.033 6.91325C8.48944 6.83575 6.97939 6.43455 5.60089 5.73568C4.22238 5.0368 3.00623 4.05589 2.03137 2.85659C1.69803 3.43159 1.50637 4.09825 1.50637 4.80825C1.506 5.44742 1.66339 6.07679 1.9646 6.64053C2.2658 7.20427 2.7015 7.68495 3.23303 8.03992C2.6166 8.02031 2.01376 7.85374 1.4747 7.55409V7.60409C1.47464 8.50054 1.78473 9.3694 2.35235 10.0633C2.91998 10.7571 3.71018 11.2332 4.58887 11.4108C4.01702 11.5655 3.41748 11.5883 2.83553 11.4774C3.08345 12.2488 3.56636 12.9233 4.21667 13.4065C4.86698 13.8898 5.65213 14.1576 6.4622 14.1724C5.08706 15.2519 3.38877 15.8375 1.64053 15.8349C1.33085 15.835 1.02143 15.8169 0.713867 15.7808C2.48843 16.9217 4.55415 17.5273 6.66387 17.5249C13.8055 17.5249 17.7097 11.6099 17.7097 6.47992C17.7097 6.31325 17.7055 6.14492 17.698 5.97825C18.4574 5.42907 19.113 4.749 19.6339 3.96992L19.6355 3.96742V3.96742Z" fill="white"/>
</svg>
