<svg width="28" height="17" viewBox="0 0 28 17" fill="none" xmlns="http://www.w3.org/2000/svg">
<path fill-rule="evenodd" clip-rule="evenodd" d="M27.3578 1.10598C27.5514 0.46899 27.3578 0 26.4303 0H23.3678C22.5885 0 22.2292 0.404825 22.0344 0.851649C22.0344 0.851649 20.4769 4.58024 18.2708 7.00219C17.5568 7.7045 17.2325 7.92733 16.8428 7.92733C16.648 7.92733 16.3552 7.7045 16.3552 7.06635V1.10598C16.3552 0.340659 16.1405 0 15.4918 0H10.6759C10.1895 0 9.89663 0.354659 9.89663 0.691819C9.89663 1.4163 11.0003 1.5843 11.1134 3.62359V8.0545C11.1134 9.02631 10.9349 9.20247 10.5453 9.20247C9.50697 9.20247 6.98119 5.45639 5.48205 1.17014C5.19156 0.335993 4.89756 0 4.11475 0H1.04998C0.174996 0 0 0.404825 0 0.851649C0 1.6473 1.03831 5.59988 4.83573 10.8276C7.36735 14.3975 10.9314 16.333 14.1782 16.333C16.1253 16.333 16.3657 15.9037 16.3657 15.1628V12.4644C16.3657 11.6046 16.55 11.4331 17.1671 11.4331C17.6221 11.4331 18.4003 11.6571 20.2179 13.3779C22.2945 15.4183 22.6364 16.333 23.8053 16.333H26.8678C27.7428 16.333 28.1814 15.9037 27.9294 15.0543C27.6518 14.2097 26.6601 12.9836 25.3453 11.5288C24.6313 10.7004 23.5603 9.80796 23.2348 9.36114C22.781 8.78832 22.9105 8.53282 23.2348 8.023C23.2348 8.023 26.9681 2.85944 27.3566 1.10598H27.3578Z" fill="white"/>
</svg>
