<svg width="26" height="20" viewBox="0 0 26 20" fill="none" xmlns="http://www.w3.org/2000/svg">
<path fill-rule="evenodd" clip-rule="evenodd" d="M5.77643 0.0502989C2.85694 0.499736 0.750548 2.3793 0.119471 5.09815C-0.0412876 5.79077 -0.0395579 7.06623 0.123133 7.76838C0.339445 8.70205 0.781479 9.6216 1.44038 10.5086C1.94494 11.1878 2.31494 11.593 3.18074 12.4144C4.34777 13.5215 5.50823 14.4548 8.06072 16.339C8.79945 16.8843 10.2141 17.931 11.2044 18.6652L13.0049 20L14.1345 19.1577C14.7558 18.6945 16.1112 17.6918 17.1465 16.9296C20.3824 14.547 21.5911 13.5837 22.8706 12.3673C24.6157 10.7083 25.5166 9.33022 25.8773 7.76838C26.0291 7.11099 26.0424 5.84038 25.9042 5.19918C25.6017 3.79597 24.9137 2.61256 23.8645 1.69088C22.9426 0.881049 21.8258 0.350411 20.5041 0.094015C19.8666 -0.0296273 18.3969 -0.0311379 17.7928 0.0912297C15.9928 0.455925 14.4767 1.45578 13.3467 3.02338C13.1773 3.25839 13.0214 3.45072 13.0004 3.45072C12.9793 3.45072 12.8216 3.25589 12.65 3.01776C11.5345 1.47018 10.0192 0.465933 8.24376 0.0976501C7.73666 -0.00753315 6.32774 -0.0345842 5.77643 0.0502989Z" fill="white"/>
</svg>
